# xmcd
# 
# Track frame offsets:
#     150
#     23855
#     43327
#     57195
#     72485
#     94342
#     108875
#     122122
#     133055
#     147902
#     160725
#     174447
#     191510
#     204377
#     220980
#     236727
#     250307
#     265647
#     278510
#     292602
# 
# Disc length: 4121
# 
# Revision: 10
# Processed by: cddbd v1.5.2PL0 Copyright (c) Steve Scherf et al.
# Submitted via: fre:ac v1.0.17
# 
DISCID=28101714
DTITLE=David Allan Coe - For The Record The First 10 Years
DYEAR=1984
DGENRE=Country
TTITLE0=You Never Even Called Me By My Name
TTITLE1=Please Come To Boston
TTITLE2=Jody Like A Melody
TTITLE3=Longhaired Redneck
TTITLE4=If That Ain't Country
TTITLE5=Willie, Waylon And Me
TTITLE6=Take This Job And Shove It
TTITLE7=Just To Prove My Love For You
TTITLE8=Jack Daniels , If You Please
TTITLE9=Would You Lay With Me (In A Field Of Stone)
TTITLE10=Divers Do It Deeper
TTITLE11=X's And O's (Kisses And Hugs)
TTITLE12=This Bottle (In My Hand) (with George Jones)
TTITLE13=Get A Little Dirt On (with Bill Anderson)
TTITLE14=Stand By Your Man
TTITLE15=Tennessee Whiskey
TTITLE16=Now I Lay Me Down To Cheat
TTITLE17=What Made You Change Your Mind
TTITLE18=The Ride
TTITLE19=Mona Lisa Lost Her Smile
EXTD=MediaType: Audio CD Producer: Unknown
EXTT0=
EXTT1=
EXTT2=
EXTT3=
EXTT4=
EXTT5=
EXTT6=
EXTT7=
EXTT8=
EXTT9=
EXTT10=
EXTT11=
EXTT12=
EXTT13=
EXTT14=
EXTT15=
EXTT16=
EXTT17=
EXTT18=
EXTT19=
PLAYORDER=
